<?xml version="1.0" standalone="no"?>
<svg xmlns:xlink="http://www.w3.org/1999/xlink" id="wave" style="transform:rotate(180deg); transition: 0.3s" viewBox="0 0 1440 100" version="1.1" xmlns="http://www.w3.org/2000/svg"><defs><linearGradient id="sw-gradient-0" x1="0" x2="0" y1="1" y2="0"><stop stop-color="#272727" offset="0%"/><stop stop-color="#272727" offset="100%"/></linearGradient></defs><path style="transform:translate(0, 0px); opacity:1" fill="url(#sw-gradient-0)" d="M0,10L26.7,11.7C53.3,13,107,17,160,28.3C213.3,40,267,60,320,70C373.3,80,427,80,480,76.7C533.3,73,587,67,640,65C693.3,63,747,67,800,63.3C853.3,60,907,50,960,51.7C1013.3,53,1067,67,1120,73.3C1173.3,80,1227,80,1280,78.3C1333.3,77,1387,73,1440,61.7C1493.3,50,1547,30,1600,28.3C1653.3,27,1707,43,1760,53.3C1813.3,63,1867,67,1920,63.3C1973.3,60,2027,50,2080,53.3C2133.3,57,2187,73,2240,81.7C2293.3,90,2347,90,2400,76.7C2453.3,63,2507,37,2560,25C2613.3,13,2667,17,2720,20C2773.3,23,2827,27,2880,30C2933.3,33,2987,37,3040,46.7C3093.3,57,3147,73,3200,68.3C3253.3,63,3307,37,3360,33.3C3413.3,30,3467,50,3520,56.7C3573.3,63,3627,57,3680,45C3733.3,33,3787,17,3813,8.3L3840,0L3840,100L3813.3,100C3786.7,100,3733,100,3680,100C3626.7,100,3573,100,3520,100C3466.7,100,3413,100,3360,100C3306.7,100,3253,100,3200,100C3146.7,100,3093,100,3040,100C2986.7,100,2933,100,2880,100C2826.7,100,2773,100,2720,100C2666.7,100,2613,100,2560,100C2506.7,100,2453,100,2400,100C2346.7,100,2293,100,2240,100C2186.7,100,2133,100,2080,100C2026.7,100,1973,100,1920,100C1866.7,100,1813,100,1760,100C1706.7,100,1653,100,1600,100C1546.7,100,1493,100,1440,100C1386.7,100,1333,100,1280,100C1226.7,100,1173,100,1120,100C1066.7,100,1013,100,960,100C906.7,100,853,100,800,100C746.7,100,693,100,640,100C586.7,100,533,100,480,100C426.7,100,373,100,320,100C266.7,100,213,100,160,100C106.7,100,53,100,27,100L0,100Z"/></svg>