<svg id="wave" style="transform:rotate(0deg); transition: 0.3s" viewBox="0 0 1440 120" version="1.1" xmlns="http://www.w3.org/2000/svg"><defs><linearGradient id="sw-gradient-0" x1="0" x2="0" y1="1" y2="0"><stop stop-color="rgba(255, 179, 11, 1)" offset="0%"></stop><stop stop-color="rgba(255, 179, 11, 1)" offset="100%"></stop></linearGradient></defs><path style="transform:translate(0, 0px); opacity:1" fill="url(#sw-gradient-0)" d="M0,12L30,16C60,20,120,28,180,28C240,28,300,20,360,24C420,28,480,44,540,58C600,72,660,84,720,80C780,76,840,56,900,40C960,24,1020,12,1080,6C1140,0,1200,0,1260,4C1320,8,1380,16,1440,24C1500,32,1560,40,1620,42C1680,44,1740,40,1800,48C1860,56,1920,76,1980,86C2040,96,2100,96,2160,98C2220,100,2280,104,2340,106C2400,108,2460,108,2520,100C2580,92,2640,76,2700,64C2760,52,2820,44,2880,46C2940,48,3000,60,3060,58C3120,56,3180,40,3240,46C3300,52,3360,80,3420,86C3480,92,3540,76,3600,76C3660,76,3720,92,3780,84C3840,76,3900,44,3960,36C4020,28,4080,44,4140,46C4200,48,4260,36,4290,30L4320,24L4320,120L4290,120C4260,120,4200,120,4140,120C4080,120,4020,120,3960,120C3900,120,3840,120,3780,120C3720,120,3660,120,3600,120C3540,120,3480,120,3420,120C3360,120,3300,120,3240,120C3180,120,3120,120,3060,120C3000,120,2940,120,2880,120C2820,120,2760,120,2700,120C2640,120,2580,120,2520,120C2460,120,2400,120,2340,120C2280,120,2220,120,2160,120C2100,120,2040,120,1980,120C1920,120,1860,120,1800,120C1740,120,1680,120,1620,120C1560,120,1500,120,1440,120C1380,120,1320,120,1260,120C1200,120,1140,120,1080,120C1020,120,960,120,900,120C840,120,780,120,720,120C660,120,600,120,540,120C480,120,420,120,360,120C300,120,240,120,180,120C120,120,60,120,30,120L0,120Z"></path></svg>